<?xml version="1.0" encoding="utf-8"?>
<!-- Generator: Adobe Illustrator 16.0.3, SVG Export Plug-In . SVG Version: 6.00 Build 0)  -->
<!DOCTYPE svg PUBLIC "-//W3C//DTD SVG 1.1//EN" "http://www.w3.org/Graphics/SVG/1.1/DTD/svg11.dtd">
<svg version="1.1" id="Layer_2" xmlns="http://www.w3.org/2000/svg" xmlns:xlink="http://www.w3.org/1999/xlink" x="0px" y="0px"
	 width="144px" height="144px" viewBox="0 0 144 144" enable-background="new 0 0 144 144" xml:space="preserve">
<path fill="none" stroke="#EE296B" stroke-miterlimit="10" d="M84.698,91.31"/>
<g>
	<path fill="#FFFFFF" d="M101.143,46.667c0,2.766-2.261,5.027-5.026,5.027h-2.305c-2.766,0-5.027-2.261-5.027-5.027v-0.635
		c0-2.766,2.262-5.027,5.027-5.027h2.305c2.766,0,5.026,2.261,5.026,5.027V46.667z"/>
</g>
<g>
	<path d="M90.209,63.907c1.042,2.174,1.639,4.599,1.639,7.168c0,9.178-7.441,16.618-16.619,16.618
		c-9.177,0-16.616-7.44-16.616-16.618c0-2.545,0.589-4.952,1.614-7.11l-17.671,0.033l0.251,31.066c0,0,1.754,10.271,10.147,10.897
		h44.723c0,0,8.642-1.002,10.395-10.522V63.874L90.209,63.907z"/>
</g>
<circle cx="74.899" cy="70.512" r="11.53"/>
<g>
	<path d="M108.355,46.509c-0.547-5.673-2.223-10.557-10.93-11.013c0,0-19.982,0.107-34.97-0.082v14.132h-2.631v-14.17
		c-0.166-0.003-0.337-0.005-0.5-0.007c-0.403-0.006-0.794-0.007-1.179-0.006v14.234h-2.631V35.436
		c-0.666,0.037-1.295,0.089-1.9,0.153c0.076,0.01,0.165,0.013,0.22,0.035c0.208,0.086,0,14.025,0,14.025h-2.631
		c0,0,0.069-12.612,0.07-13.727c-8.098,1.508-9.699,5.871-9.417,10.808l-0.171,10.679l21.336-0.107c0,0,12.623-11.47,24.924,0.32
		c11.022-0.044,20.505-0.129,20.505-0.129L108.355,46.509z"/>
	<path fill="#F9F9F9" d="M62.456,35.209h-2.631v0.167c0.856,0.014,1.733,0.026,2.631,0.038V35.209z"/>
	<path fill="#F9F9F9" d="M58.145,35.362V35.26h-2.631v0.176C56.342,35.39,57.22,35.365,58.145,35.362z"/>
	<path fill="#F9F9F9" d="M51.271,35.883c0,0.009,0,0.026,0,0.039c0.727-0.135,1.507-0.246,2.341-0.334
		C53.157,35.528,52.341,35.662,51.271,35.883z"/>
</g>
</svg>
