<?xml version="1.0" encoding="utf-8"?>
<!-- Generator: Adobe Illustrator 16.0.3, SVG Export Plug-In . SVG Version: 6.00 Build 0)  -->
<!DOCTYPE svg PUBLIC "-//W3C//DTD SVG 1.1//EN" "http://www.w3.org/Graphics/SVG/1.1/DTD/svg11.dtd">
<svg version="1.1" id="Layer_2" xmlns="http://www.w3.org/2000/svg" xmlns:xlink="http://www.w3.org/1999/xlink" x="0px" y="0px"
	 width="144px" height="144px" viewBox="0 0 144 144" enable-background="new 0 0 144 144" xml:space="preserve">
<circle fill="none" stroke="#000000" stroke-width="5" stroke-miterlimit="10" cx="71.461" cy="73.647" r="49.31"/>
<path fill="none" stroke="#EE296B" stroke-miterlimit="10" d="M79.188,90.209"/>
<g>
	<path fill="#FFFFFF" d="M92.378,54.4c0,2.218-1.814,4.032-4.032,4.032h-1.849c-2.218,0-4.032-1.814-4.032-4.032v-0.51
		c0-2.218,1.814-4.032,4.032-4.032h1.849c2.218,0,4.032,1.814,4.032,4.032V54.4z"/>
</g>
<g>
	<path d="M83.607,68.229c0.836,1.743,1.317,3.688,1.317,5.75c0,7.361-5.969,13.33-13.33,13.33c-7.362,0-13.329-5.969-13.329-13.33
		c0-2.044,0.473-3.973,1.295-5.704l-14.174,0.027l0.201,24.919c0,0,1.407,8.239,8.139,8.741h35.871c0,0,6.933-0.804,8.339-8.44
		v-25.32L83.607,68.229z"/>
</g>
<circle cx="71.327" cy="73.527" r="9.249"/>
<g>
	<path d="M98.163,54.273c-0.438-4.551-1.782-8.468-8.766-8.834c0,0-16.029,0.086-28.051-0.066v11.336h-2.11V45.343
		c-0.133-0.002-0.27-0.004-0.401-0.006c-0.324-0.005-0.637-0.006-0.946-0.005V56.75h-2.11V45.391
		c-0.534,0.03-1.039,0.072-1.524,0.123c0.061,0.008,0.132,0.011,0.176,0.028c0.167,0.069,0,11.25,0,11.25h-2.11
		c0,0,0.055-10.116,0.056-11.011c-6.495,1.21-7.78,4.709-7.554,8.669l-0.137,8.566l17.115-0.086c0,0,10.125-9.2,19.992,0.257
		c8.841-0.035,16.447-0.103,16.447-0.103L98.163,54.273z"/>
	<path fill="#F9F9F9" d="M61.346,45.209h-2.11v0.134c0.687,0.011,1.39,0.021,2.11,0.03V45.209z"/>
	<path fill="#F9F9F9" d="M57.888,45.332V45.25h-2.11v0.141C56.442,45.354,57.146,45.334,57.888,45.332z"/>
	<path fill="#F9F9F9" d="M52.375,45.75c0,0.007,0,0.021,0,0.031c0.583-0.108,1.209-0.197,1.878-0.268
		C53.887,45.465,53.233,45.572,52.375,45.75z"/>
</g>
</svg>
