<?xml version="1.0" encoding="utf-8"?>
<!-- Generator: Adobe Illustrator 16.0.3, SVG Export Plug-In . SVG Version: 6.00 Build 0)  -->
<!DOCTYPE svg PUBLIC "-//W3C//DTD SVG 1.1//EN" "http://www.w3.org/Graphics/SVG/1.1/DTD/svg11.dtd">
<svg version="1.1" id="Layer_2" xmlns="http://www.w3.org/2000/svg" xmlns:xlink="http://www.w3.org/1999/xlink" x="0px" y="0px"
	 width="144px" height="144px" viewBox="0 0 144 144" enable-background="new 0 0 144 144" xml:space="preserve">
<path fill="none" stroke="#EE296B" stroke-miterlimit="10" d="M76.188,87.209"/>
<g>
	<path d="M73.929,33.667l0.181,15.118h16.606v8.091H74.109v31.519c0,7.246,2.241,11.352,8.698,11.352
		c3.032,0,5.272-0.363,6.722-0.725l0.527,7.971c-2.24,0.844-5.799,1.449-10.279,1.449c-5.403,0-9.753-1.57-12.521-4.469
		c-3.294-3.141-4.481-8.332-4.481-15.215V56.876h-9.884v-8.091c0,0,5.911-0.618,8.275-3.952c1.463-2.063,1.609-10.056,1.609-10.056
		L73.929,33.667z"/>
</g>
</svg>
